<svg xmlns="http://www.w3.org/2000/svg" xmlns:xlink="http://www.w3.org/1999/xlink" width="2000" zoomAndPan="magnify" viewBox="0 0 1500 1499.999933" height="2000" preserveAspectRatio="xMidYMid meet" version="1.0"><defs><clipPath id="9f6d732b75"><path d="M 77.585938 77.585938 L 1314.203125 77.585938 L 1314.203125 1314.203125 L 77.585938 1314.203125 Z M 77.585938 77.585938 " clip-rule="nonzero"/></clipPath><clipPath id="ee3264d1fb"><path d="M 696 77.585938 C 354.460938 77.585938 77.585938 354.460938 77.585938 696 C 77.585938 1037.539062 354.460938 1314.414062 696 1314.414062 C 1037.539062 1314.414062 1314.414062 1037.539062 1314.414062 696 C 1314.414062 354.460938 1037.539062 77.585938 696 77.585938 Z M 696 77.585938 " clip-rule="nonzero"/></clipPath><clipPath id="23d7b86f18"><path d="M 467.492188 320.214844 L 922.039062 320.214844 L 922.039062 1071.457031 L 467.492188 1071.457031 Z M 467.492188 320.214844 " clip-rule="nonzero"/></clipPath><clipPath id="9c75dac460"><path d="M 550.078125 320.214844 L 839.441406 320.214844 C 885.066406 320.214844 922.039062 357.1875 922.039062 402.800781 L 922.039062 988.804688 C 922.039062 1034.417969 885.066406 1071.390625 839.441406 1071.390625 L 550.078125 1071.390625 C 504.46875 1071.390625 467.492188 1034.417969 467.492188 988.804688 L 467.492188 402.800781 C 467.492188 357.1875 504.46875 320.214844 550.078125 320.214844 Z M 550.078125 320.214844 " clip-rule="nonzero"/></clipPath><clipPath id="6d162e9d22"><path d="M 550.078125 320.214844 L 839.441406 320.214844 C 885.066406 320.214844 922.039062 357.1875 922.039062 402.800781 L 922.039062 988.804688 C 922.039062 1034.417969 885.066406 1071.390625 839.441406 1071.390625 L 550.078125 1071.390625 C 504.46875 1071.390625 467.492188 1034.417969 467.492188 988.804688 L 467.492188 402.800781 C 467.492188 357.1875 504.46875 320.214844 550.078125 320.214844 Z M 550.078125 320.214844 " clip-rule="nonzero"/></clipPath><clipPath id="4cd2f1b62d"><path d="M 664.769531 949.828125 L 729.1875 949.828125 L 729.1875 1014.253906 L 664.769531 1014.253906 Z M 664.769531 949.828125 " clip-rule="nonzero"/></clipPath><clipPath id="3da076ce88"><path d="M 696.984375 949.828125 C 679.191406 949.828125 664.769531 964.25 664.769531 982.042969 C 664.769531 999.832031 679.191406 1014.253906 696.984375 1014.253906 C 714.765625 1014.253906 729.1875 999.832031 729.1875 982.042969 C 729.1875 964.25 714.765625 949.828125 696.984375 949.828125 Z M 696.984375 949.828125 " clip-rule="nonzero"/></clipPath><clipPath id="9b20a3ea74"><path d="M 696.984375 949.828125 C 679.191406 949.828125 664.769531 964.25 664.769531 982.042969 C 664.769531 999.832031 679.191406 1014.253906 696.984375 1014.253906 C 714.765625 1014.253906 729.1875 999.832031 729.1875 982.042969 C 729.1875 964.25 714.765625 949.828125 696.984375 949.828125 Z M 696.984375 949.828125 " clip-rule="nonzero"/></clipPath><clipPath id="34cfc3eb03"><path d="M 516.207031 398.847656 L 877.761719 398.847656 L 877.761719 910.054688 L 516.207031 910.054688 Z M 516.207031 398.847656 " clip-rule="nonzero"/></clipPath><clipPath id="df903054a8"><path d="M 641.054688 345.101562 L 752.914062 345.101562 L 752.914062 372.070312 L 641.054688 372.070312 Z M 641.054688 345.101562 " clip-rule="nonzero"/></clipPath><clipPath id="ac70121974"><rect x="0" width="1392" y="0" height="1392"/></clipPath></defs><g transform="matrix(1, 0, 0, 1, 54, 54)"><g clip-path="url(#ac70121974)"><g clip-path="url(#9f6d732b75)"><g clip-path="url(#ee3264d1fb)"><path stroke-linecap="butt" transform="matrix(1.03396, 0, 0, 1.03396, 77.586862, 77.586809)" fill="none" stroke-linejoin="miter" d="M 598.101682 -0.000842553 C 267.780291 -0.000842553 -0.000894151 267.780343 -0.000894151 598.101734 C -0.000894151 928.423124 267.780291 1196.20431 598.101682 1196.20431 C 928.423073 1196.20431 1196.204258 928.423124 1196.204258 598.101734 C 1196.204258 267.780343 928.423073 -0.000842553 598.101682 -0.000842553 Z M 598.101682 -0.000842553 " stroke="#000000" stroke-width="29.01466" stroke-opacity="1" stroke-miterlimit="4"/></g></g><g clip-path="url(#23d7b86f18)"><g clip-path="url(#9c75dac460)"><g clip-path="url(#6d162e9d22)"><path fill="#000000" d="M 467.492188 320.214844 L 922.039062 320.214844 L 922.039062 1071.273438 L 467.492188 1071.273438 Z M 467.492188 320.214844 " fill-opacity="1" fill-rule="nonzero"/></g></g></g><g clip-path="url(#4cd2f1b62d)"><g clip-path="url(#3da076ce88)"><g clip-path="url(#9b20a3ea74)"><path fill="#ffffff" d="M 664.769531 949.828125 L 729.1875 949.828125 L 729.1875 1014.253906 L 664.769531 1014.253906 Z M 664.769531 949.828125 " fill-opacity="1" fill-rule="nonzero"/></g></g></g><g clip-path="url(#34cfc3eb03)"><path fill="#ffffff" d="M 516.207031 398.847656 L 877.761719 398.847656 L 877.761719 910.105469 L 516.207031 910.105469 Z M 516.207031 398.847656 " fill-opacity="1" fill-rule="nonzero"/></g><g clip-path="url(#df903054a8)"><path fill="#ffffff" d="M 641.054688 345.101562 L 752.957031 345.101562 L 752.957031 372.070312 L 641.054688 372.070312 Z M 641.054688 345.101562 " fill-opacity="1" fill-rule="nonzero"/></g></g></g></svg>
