<svg xmlns="http://www.w3.org/2000/svg" xmlns:xlink="http://www.w3.org/1999/xlink" width="2000" zoomAndPan="magnify" viewBox="0 0 1500 1499.999933" height="2000" preserveAspectRatio="xMidYMid meet" version="1.0"><defs><clipPath id="71895402e2"><path d="M 131.585938 131.585938 L 1368.335938 131.585938 L 1368.335938 1368.335938 L 131.585938 1368.335938 Z M 131.585938 131.585938 " clip-rule="nonzero"/></clipPath><clipPath id="6fc849784b"><path d="M 749.996094 131.585938 C 408.457031 131.585938 131.585938 408.457031 131.585938 749.996094 C 131.585938 1091.535156 408.457031 1368.40625 749.996094 1368.40625 C 1091.535156 1368.40625 1368.40625 1091.535156 1368.40625 749.996094 C 1368.40625 408.457031 1091.535156 131.585938 749.996094 131.585938 Z M 749.996094 131.585938 " clip-rule="nonzero"/></clipPath><clipPath id="872be66248"><path d="M 521.5 374.214844 L 976.042969 374.214844 L 976.042969 1125.457031 L 521.5 1125.457031 Z M 521.5 374.214844 " clip-rule="nonzero"/></clipPath><clipPath id="2d96fd0b98"><path d="M 604.085938 374.214844 L 893.449219 374.214844 C 939.070312 374.214844 976.042969 411.1875 976.042969 456.800781 L 976.042969 1042.804688 C 976.042969 1088.417969 939.070312 1125.390625 893.449219 1125.390625 L 604.085938 1125.390625 C 558.472656 1125.390625 521.5 1088.417969 521.5 1042.804688 L 521.5 456.800781 C 521.5 411.1875 558.472656 374.214844 604.085938 374.214844 Z M 604.085938 374.214844 " clip-rule="nonzero"/></clipPath><clipPath id="96e183e4ca"><path d="M 604.085938 374.214844 L 893.449219 374.214844 C 939.070312 374.214844 976.042969 411.1875 976.042969 456.800781 L 976.042969 1042.804688 C 976.042969 1088.417969 939.070312 1125.390625 893.449219 1125.390625 L 604.085938 1125.390625 C 558.472656 1125.390625 521.5 1088.417969 521.5 1042.804688 L 521.5 456.800781 C 521.5 411.1875 558.472656 374.214844 604.085938 374.214844 Z M 604.085938 374.214844 " clip-rule="nonzero"/></clipPath><clipPath id="d1a52f3e38"><path d="M 718.777344 1003.828125 L 783.191406 1003.828125 L 783.191406 1068.253906 L 718.777344 1068.253906 Z M 718.777344 1003.828125 " clip-rule="nonzero"/></clipPath><clipPath id="ae189c7d4d"><path d="M 750.988281 1003.828125 C 733.199219 1003.828125 718.777344 1018.25 718.777344 1036.042969 C 718.777344 1053.832031 733.199219 1068.253906 750.988281 1068.253906 C 768.773438 1068.253906 783.191406 1053.832031 783.191406 1036.042969 C 783.191406 1018.25 768.773438 1003.828125 750.988281 1003.828125 Z M 750.988281 1003.828125 " clip-rule="nonzero"/></clipPath><clipPath id="29e3665aba"><path d="M 750.988281 1003.828125 C 733.199219 1003.828125 718.777344 1018.25 718.777344 1036.042969 C 718.777344 1053.832031 733.199219 1068.253906 750.988281 1068.253906 C 768.773438 1068.253906 783.191406 1053.832031 783.191406 1036.042969 C 783.191406 1018.25 768.773438 1003.828125 750.988281 1003.828125 Z M 750.988281 1003.828125 " clip-rule="nonzero"/></clipPath><clipPath id="75079560c7"><path d="M 570.210938 452.847656 L 931.769531 452.847656 L 931.769531 964.054688 L 570.210938 964.054688 Z M 570.210938 452.847656 " clip-rule="nonzero"/></clipPath><clipPath id="f61bb4812f"><path d="M 695.058594 399.101562 L 806.917969 399.101562 L 806.917969 426.070312 L 695.058594 426.070312 Z M 695.058594 399.101562 " clip-rule="nonzero"/></clipPath></defs><g clip-path="url(#71895402e2)"><g clip-path="url(#6fc849784b)"><path stroke-linecap="butt" transform="matrix(0.75, 0, 0, 0.75, 131.586862, 131.586809)" fill="none" stroke-linejoin="miter" d="M 824.545713 -0.00116155 C 369.160257 -0.00116155 -0.00123269 369.160329 -0.00123269 824.545784 C -0.00123269 1279.93124 369.160257 1649.09273 824.545713 1649.09273 C 1279.931169 1649.09273 1649.092659 1279.93124 1649.092659 824.545784 C 1649.092659 369.160329 1279.931169 -0.00116155 824.545713 -0.00116155 Z M 824.545713 -0.00116155 " stroke="#ffffff" stroke-width="40" stroke-opacity="1" stroke-miterlimit="4"/></g></g><g clip-path="url(#872be66248)"><g clip-path="url(#2d96fd0b98)"><g clip-path="url(#96e183e4ca)"><path fill="#ffffff" d="M 521.5 374.214844 L 976.042969 374.214844 L 976.042969 1125.273438 L 521.5 1125.273438 Z M 521.5 374.214844 " fill-opacity="1" fill-rule="nonzero"/></g></g></g><g clip-path="url(#d1a52f3e38)"><g clip-path="url(#ae189c7d4d)"><g clip-path="url(#29e3665aba)"><path fill="#10131d" d="M 718.777344 1003.828125 L 783.191406 1003.828125 L 783.191406 1068.253906 L 718.777344 1068.253906 Z M 718.777344 1003.828125 " fill-opacity="1" fill-rule="nonzero"/></g></g></g><g clip-path="url(#75079560c7)"><path fill="#10131d" d="M 570.210938 452.847656 L 931.769531 452.847656 L 931.769531 964.105469 L 570.210938 964.105469 Z M 570.210938 452.847656 " fill-opacity="1" fill-rule="nonzero"/></g><g clip-path="url(#f61bb4812f)"><path fill="#10131d" d="M 695.058594 399.101562 L 806.960938 399.101562 L 806.960938 426.070312 L 695.058594 426.070312 Z M 695.058594 399.101562 " fill-opacity="1" fill-rule="nonzero"/></g></svg>
